<?xml version="1.0" encoding="UTF-8"?>
<svg xmlns="http://www.w3.org/2000/svg" xmlns:xlink="http://www.w3.org/1999/xlink" viewBox="0 0 64 64" width="64px" height="64px">
<g id="surface32403376">
<path fill="#21A45D" stroke="#21A45D" style="stroke-width:2;fill-rule:nonzero;fill:rgb(12.941177%,64.313728%,36.470589%);fill-opacity:1;" d="M 29.5 0.5 C 25.898438 0.5 23 3.398438 23 7 L 23 17 C 23 18.949219 21.449219 20.5 19.5 20.5 L 10.402344 20.5 C 9.351562 20.5 8.5 19.648438 8.5 18.597656 C 8.5 18.050781 8.75 17.5 9.148438 17.148438 L 18.449219 9.148438 C 19.101562 8.601562 19.148438 7.648438 18.597656 7.050781 C 18.050781 6.398438 17.101562 6.351562 16.5 6.902344 L 7.199219 14.851562 C 6.101562 15.800781 5.5 17.148438 5.5 18.601562 C 5.5 21.300781 7.699219 23.5 10.402344 23.5 L 19.5 23.5 C 23.101562 23.5 26 20.601562 26 17 L 26 7 C 26 5.050781 27.550781 3.5 29.5 3.5 L 49 3.5 C 50.949219 3.5 52.5 5.050781 52.5 7 L 52.5 56.050781 L 49 60.5 L 45.050781 56.550781 C 44.449219 55.949219 43.5 55.949219 42.949219 56.550781 L 39 60.5 L 35.050781 56.550781 C 34.449219 55.949219 33.5 55.949219 32.949219 56.550781 L 29 60.5 L 25.050781 56.550781 C 24.449219 55.949219 23.5 55.949219 22.949219 56.550781 L 19 60.5 L 15.050781 56.550781 C 14.449219 55.949219 13.5 55.949219 12.949219 56.550781 L 9.097656 60.402344 C 9.050781 60.449219 8.949219 60.5 8.851562 60.5 C 8.648438 60.5 8.5 60.351562 8.5 60.152344 L 8.5 33.601562 C 8.5 32.75 7.851562 32.101562 7 32.101562 C 6.148438 32.101562 5.5 32.75 5.5 33.601562 L 5.5 60.152344 C 5.5 62 7 63.5 8.851562 63.5 C 9.75 63.5 10.601562 63.148438 11.199219 62.5 L 14 59.699219 L 16.902344 62.601562 C 17.449219 63.148438 18.199219 63.5 19 63.5 C 19.800781 63.5 20.550781 63.199219 21.097656 62.601562 L 24 59.699219 L 26.902344 62.601562 C 27.449219 63.148438 28.199219 63.5 29 63.5 C 29.800781 63.5 30.550781 63.199219 31.097656 62.601562 L 34 59.699219 L 36.902344 62.601562 C 37.449219 63.148438 38.199219 63.5 39 63.5 C 39.800781 63.5 40.550781 63.199219 41.097656 62.601562 L 44 59.699219 L 46.902344 62.601562 C 47.449219 63.148438 48.199219 63.5 49 63.5 C 49.800781 63.5 50.550781 63.199219 51.097656 62.601562 C 51.148438 62.550781 51.199219 62.5 51.199219 62.449219 L 55.148438 57.449219 C 55.351562 57.199219 55.449219 56.851562 55.449219 56.5 L 55.449219 7 C 55.5 3.398438 52.601562 0.5 49 0.5 Z M 24.15625 35.917969 C 24.023438 35.921875 23.886719 35.929688 23.75 35.949219 C 22.5 36.101562 21.5 37.449219 19.5 40.148438 C 19.199219 40.550781 18.949219 40.898438 18.652344 41.300781 C 18.152344 41.949219 18.300781 42.898438 18.949219 43.398438 C 19.648438 43.898438 20.601562 43.75 21.101562 43.097656 C 21.398438 42.699219 21.648438 42.300781 21.949219 41.898438 C 22.699219 40.898438 23.75 39.398438 24.300781 38.898438 C 24.898438 39.050781 25.851562 40.25 26.550781 41.097656 C 27.898438 42.75 29.398438 44.648438 31.601562 44.648438 L 32 44.648438 C 33.550781 44.5 34.699219 43.398438 35.699219 42.449219 C 36.449219 41.699219 37.199219 41 37.75 41.050781 C 37.898438 41.050781 38.148438 41.148438 38.351562 41.25 C 39.101562 41.601562 40 41.300781 40.351562 40.597656 C 40.699219 39.898438 40.398438 38.949219 39.699219 38.597656 C 39.148438 38.300781 38.601562 38.148438 38.050781 38.097656 C 36.101562 37.898438 34.699219 39.25 33.601562 40.300781 C 32.898438 40.949219 32.199219 41.648438 31.652344 41.699219 C 30.851562 41.800781 29.75 40.398438 28.851562 39.25 C 27.585938 37.65625 26.144531 35.886719 24.15625 35.917969 Z M 45 41.5 C 44.171875 41.5 43.5 42.171875 43.5 43 C 43.5 43.828125 44.171875 44.5 45 44.5 C 45.828125 44.5 46.5 43.828125 46.5 43 C 46.5 42.171875 45.828125 41.5 45 41.5 Z M 45 41.5"/>
</g>
</svg>
