<?xml version="1.0" encoding="UTF-8"?>
<svg xmlns="http://www.w3.org/2000/svg" xmlns:xlink="http://www.w3.org/1999/xlink" viewBox="0 0 20 20" width="20px" height="20px">
<path style=" stroke:none;fill-opacity:1;" d="M 10 0.800781 C 9.710938 0.796875 9.441406 0.949219 9.296875 1.195312 C 9.152344 1.445312 9.152344 1.753906 9.296875 2.003906 C 9.441406 2.253906 9.710938 2.402344 10 2.398438 C 14.207031 2.398438 17.601562 5.792969 17.601562 10 C 17.601562 14.207031 14.207031 17.601562 10 17.601562 C 5.792969 17.601562 2.398438 14.207031 2.398438 10 C 2.398438 7.808594 3.324219 5.84375 4.800781 4.457031 L 4.800781 6 C 4.796875 6.289062 4.949219 6.558594 5.195312 6.703125 C 5.445312 6.847656 5.753906 6.847656 6.003906 6.703125 C 6.253906 6.558594 6.402344 6.289062 6.398438 6 L 6.398438 1.601562 L 2 1.601562 C 1.710938 1.597656 1.441406 1.746094 1.296875 1.996094 C 1.152344 2.246094 1.152344 2.554688 1.296875 2.804688 C 1.441406 3.050781 1.710938 3.203125 2 3.199219 L 3.808594 3.199219 C 1.960938 4.882812 0.800781 7.308594 0.800781 10 C 0.800781 15.070312 4.929688 19.199219 10 19.199219 C 15.070312 19.199219 19.199219 15.070312 19.199219 10 C 19.199219 4.929688 15.070312 0.800781 10 0.800781 Z M 10 0.800781 " fill="#fff"/>
</svg>
